# xmcd CD database file generated by RipIT.
#
# Track frame offsets:
#	150
#	15744
#	27368
#	46579
#	58560
#	71694
#	89734
#	107461
#	123181
#	140835
#	153737
#	176622
#	196279
#	213240
#	224066
#	241196
#	257236
#	275448
#	291932
#	305711
#	321556
#	339798
#
# Disc length: 4790 seconds
#
# Revision: 1
# Processed by: cddbd v1.5.1PL2 Copyright (c) Steve Scherf et al.
# Submitted via: RipIT 3.4 www.suwald.com/ripit/ripit.html at Thu Jan 5 20:08:08 CET 2006.
#
DISCID=5412b416
DTITLE=Enya - Music Box
DYEAR=1900
DGENRE=New Age
TTITLE0=Waretmark
TTITLE1=Day Without Rain
TTITLE2=Thr Memory Of Trees
TTITLE3=The House Moon
TTITLE4=The Celts
TTITLE5=I Want Tomorrow
TTITLE6=Angels
TTITLE7=May It Be
TTITLE8=Carribien Blue
TTITLE9=Book Of Day
TTITLE10=On My Way Home
TTITLE11=Triad: St. Patrick
TTITLE12=Wild Child
TTITLE13=Tempus Vernum
TTITLE14=One By One
TTITLE15=Only Time
TTITLE16=Flora's Secret
TTITLE17=Lazy Days
TTITLE18=The First Of Autumn
TTITLE19=Orinoco Flow (Marchelo Trance Radio Edit)
TTITLE20=Never Forget (Radio Rmx)
TTITLE21=Exile (Shot Radio Edit)
EXTD=
EXTT0=
EXTT1=
EXTT2=
EXTT3=
EXTT4=
EXTT5=
EXTT6=
EXTT7=
EXTT8=
EXTT9=
EXTT10=
EXTT11=
EXTT12=
EXTT13=
EXTT14=
EXTT15=
EXTT16=
EXTT17=
EXTT18=
EXTT19=
EXTT20=
EXTT21=
PLAYORDER=
